<svg width="21" height="14" viewBox="0 0 21 14" fill="none" xmlns="http://www.w3.org/2000/svg">
<path d="M20.589 0.480638C20.7193 0.63198 20.8227 0.811769 20.8932 1.00971C20.9637 1.20764 21 1.41984 21 1.63414C21 1.84844 20.9637 2.06064 20.8932 2.25858C20.8227 2.45651 20.7193 2.6363 20.589 2.78764L11.2891 13.6188C11.1856 13.7397 11.0626 13.8355 10.9272 13.9009C10.7918 13.9663 10.6467 14 10.5001 14C10.3536 14 10.2084 13.9663 10.0731 13.9009C9.93768 13.8355 9.8147 13.7397 9.71117 13.6188L0.411276 2.78764C-0.137092 2.14898 -0.137092 1.1193 0.411276 0.480637C0.959644 -0.158025 1.84375 -0.158025 2.39212 0.480637L10.5057 9.9172L18.6194 0.467606C19.1565 -0.158023 20.0518 -0.158025 20.589 0.480638Z" fill="#51BBD5"/>
</svg>
