<svg width="28" height="28" viewBox="0 0 28 28" fill="none" xmlns="http://www.w3.org/2000/svg">
<path d="M12.593 2.84221V0C9.76482 0.281407 7.18995 1.40704 5.10754 3.10955L7.10553 5.12161C8.66734 3.91156 10.5387 3.09548 12.593 2.84221ZM22.8925 3.10955C20.81 1.40704 18.2352 0.281407 15.407 0V2.84221C17.4613 3.09548 19.3327 3.91156 20.8945 5.12161L22.8925 3.10955ZM25.1578 12.593H28C27.7186 9.76482 26.593 7.18995 24.8905 5.10754L22.8784 7.10553C24.0884 8.66734 24.9045 10.5387 25.1578 12.593ZM5.12161 7.10553L3.10955 5.10754C1.40704 7.18995 0.281407 9.76482 0 12.593H2.84221C3.09548 10.5387 3.91156 8.66734 5.12161 7.10553ZM2.84221 15.407H0C0.281407 18.2352 1.40704 20.81 3.10955 22.8925L5.12161 20.8804C3.91156 19.3327 3.09548 17.4613 2.84221 15.407ZM18.2211 14C18.2211 11.6643 16.3357 9.77889 14 9.77889C11.6643 9.77889 9.77889 11.6643 9.77889 14C9.77889 16.3357 11.6643 18.2211 14 18.2211C16.3357 18.2211 18.2211 16.3357 18.2211 14ZM22.8784 20.8945L24.8905 22.9065C26.593 20.8241 27.7186 18.2352 28 15.4211H25.1578C24.9045 17.4613 24.0884 19.3327 22.8784 20.8945ZM15.407 25.1578V28C18.2352 27.7186 20.81 26.593 22.8925 24.8905L20.8804 22.8784C19.3327 24.0884 17.4613 24.9045 15.407 25.1578ZM5.10754 24.8905C7.18995 26.593 9.77889 27.7186 12.593 28V25.1578C10.5387 24.9045 8.66734 24.0884 7.10553 22.8784L5.10754 24.8905Z" fill="#51BBD5"/>
</svg>
