<svg width="28" height="23" viewBox="0 0 28 23" fill="none" xmlns="http://www.w3.org/2000/svg">
<path d="M19.6 13.4H27.5V19.9C27.5 21.1638 26.4639 22.2 25.2 22.2H2.8C1.53614 22.2 0.5 21.1638 0.5 19.9V13.4H7.22338L9.50446 17.9489C9.81737 18.6075 10.489 19 11.2 19C11.9111 19 12.5827 18.6075 12.8956 17.9488L16.8006 10.1512L17.9045 12.3491C18.2175 13.0076 18.889 13.4 19.6 13.4Z" stroke="#51BBD5"/>
<path d="M11.1994 12.8487L10.0955 10.6508C9.78251 9.99234 9.11095 9.59999 8.4 9.59999H0.5V3.09999C0.5 1.83613 1.53614 0.799988 2.8 0.799988H25.2C26.4639 0.799988 27.5 1.83613 27.5 3.09999V9.59999H20.7774L18.5075 5.0469L18.5072 5.04638C18.1652 4.36235 17.4564 4.05599 16.807 4.05599C16.1576 4.05599 15.449 4.36227 15.1069 5.04609C15.1069 5.04619 15.1068 5.04629 15.1068 5.04638L11.1994 12.8487Z" stroke="#51BBD5"/>
</svg>
