<svg width="22" height="22" viewBox="0 0 22 22" fill="none" xmlns="http://www.w3.org/2000/svg">
<path d="M8.95833 2.08334H13.0417C13.2737 2.08334 13.4963 2.17553 13.6604 2.33962C13.8245 2.50372 13.9167 2.72628 13.9167 2.95834V5.00001H8.08333V2.95834C8.08333 2.72628 8.17552 2.50372 8.33961 2.33962C8.50371 2.17553 8.72627 2.08334 8.95833 2.08334ZM6.33333 2.95834V5.00001H4.29167C3.28605 5.00001 2.32163 5.39949 1.61055 6.11056C0.899478 6.82164 0.5 7.78606 0.5 8.79168V17.5417C0.5 18.5473 0.899478 19.5117 1.61055 20.2228C2.32163 20.9339 3.28605 21.3333 4.29167 21.3333H17.7083C18.7139 21.3333 19.6784 20.9339 20.3894 20.2228C21.1005 19.5117 21.5 18.5473 21.5 17.5417V8.79168C21.5 7.78606 21.1005 6.82164 20.3894 6.11056C19.6784 5.39949 18.7139 5.00001 17.7083 5.00001H15.6667V2.95834C15.6667 2.26215 15.3901 1.59447 14.8978 1.10219C14.4055 0.609905 13.7379 0.333344 13.0417 0.333344H8.95833C8.26214 0.333344 7.59446 0.609905 7.10218 1.10219C6.6099 1.59447 6.33333 2.26215 6.33333 2.95834ZM17.7083 6.75001C18.8353 6.75001 19.75 7.66468 19.75 8.79168V17.5417C19.75 18.0832 19.5349 18.6025 19.152 18.9854C18.7691 19.3682 18.2498 19.5833 17.7083 19.5833H4.29167C3.75018 19.5833 3.23088 19.3682 2.84799 18.9854C2.4651 18.6025 2.25 18.0832 2.25 17.5417V8.79168C2.25 7.66468 3.16467 6.75001 4.29167 6.75001H17.7083ZM10.4167 10.5417V12.5833H8.375C8.14294 12.5833 7.92038 12.6755 7.75628 12.8396C7.59219 13.0037 7.5 13.2263 7.5 13.4583C7.5 13.6904 7.59219 13.913 7.75628 14.0771C7.92038 14.2412 8.14294 14.3333 8.375 14.3333H10.4167V16.375C10.4167 16.6071 10.5089 16.8296 10.6729 16.9937C10.837 17.1578 11.0596 17.25 11.2917 17.25C11.5237 17.25 11.7463 17.1578 11.9104 16.9937C12.0745 16.8296 12.1667 16.6071 12.1667 16.375V14.3333H14.2083C14.4404 14.3333 14.663 14.2412 14.8271 14.0771C14.9911 13.913 15.0833 13.6904 15.0833 13.4583C15.0833 13.2263 14.9911 13.0037 14.8271 12.8396C14.663 12.6755 14.4404 12.5833 14.2083 12.5833H12.1667V10.5417C12.1667 10.3096 12.0745 10.0871 11.9104 9.92296C11.7463 9.75886 11.5237 9.66668 11.2917 9.66668C11.0596 9.66668 10.837 9.75886 10.6729 9.92296C10.5089 10.0871 10.4167 10.3096 10.4167 10.5417Z" fill="#51BBD5"/>
</svg>
