<svg width="22" height="30" viewBox="0 0 22 30" fill="none" xmlns="http://www.w3.org/2000/svg">
<path d="M21.9133 29H0.000286818M14.6316 18.697C14.1115 19.34 13.4609 19.8374 12.7332 20.1482C12.0056 20.459 11.2217 20.5744 10.4459 20.4849C9.67008 20.3954 8.92455 20.1035 8.27054 19.6333C7.61652 19.1631 7.07269 18.5279 6.68372 17.7799C6.29474 17.0319 6.07173 16.1925 6.03299 15.3307C5.99426 14.4688 6.14091 13.6091 6.4609 12.8221C6.78089 12.0352 7.26508 11.3434 7.87371 10.8037C8.48233 10.264 9.19801 9.89179 9.96196 9.71758M9.96196 9.71758L12.6003 12.6364L16.4351 8.39394L10.4419 1.76364C10.2577 1.55986 10.0391 1.39821 9.79843 1.28793C9.55779 1.17764 9.29988 1.12088 9.03942 1.12088C8.77895 1.12088 8.52104 1.17764 8.28041 1.28793C8.03978 1.39821 7.82114 1.55986 7.63698 1.76364L6.60707 2.90303C6.42287 3.10676 6.27676 3.34864 6.17707 3.61485C6.07738 3.88106 6.02608 4.16639 6.02608 4.45455C6.02608 4.7427 6.07738 5.02803 6.17707 5.29424C6.27676 5.56045 6.42287 5.80233 6.60707 6.00606L7.38717 6.86909M9.96196 9.71758L7.38717 6.86909M18.4905 18.697C18.0028 19.9298 17.2743 21.0279 16.3574 21.9123C15.4406 22.7967 14.358 23.4455 13.1876 23.8121M13.1876 23.8121C12.5564 23.2467 11.7689 22.9381 10.9568 22.9381C10.1447 22.9381 9.35717 23.2467 8.72606 23.8121M13.1876 23.8121C13.581 24.1647 13.9016 24.6066 14.1276 25.1079L14.7916 26.5758C14.7916 26.5758 15.8872 29 18.0785 29H3.83507C6.02637 29 7.12203 26.5758 7.12203 26.5758L7.78599 25.1079C8.01206 24.6066 8.33261 24.1648 8.72606 23.8121M16.9829 12.0303L15.3394 13.8485M21.9133 16.8788H12.0525M7.38717 6.86909C5.88464 7.67125 4.63827 8.96018 3.81366 10.5646C2.98905 12.1691 2.62523 14.0132 2.77053 15.8519C2.91583 17.6905 3.56337 19.4368 4.62712 20.8586C5.69088 22.2805 7.1205 23.3106 8.72606 23.8121M7.12203 2.33333L5.91681 1" stroke="#51BBD5"/>
</svg>
