<svg width="20" height="21" viewBox="0 0 20 21" fill="none" xmlns="http://www.w3.org/2000/svg">
    <path
        d="M10 12.5C10.1978 12.5 10.3911 12.4414 10.5556 12.3315C10.72 12.2216 10.8482 12.0654 10.9239 11.8827C10.9996 11.7 11.0194 11.4989 10.9808 11.3049C10.9422 11.1109 10.847 10.9327 10.7071 10.7929C10.5673 10.653 10.3891 10.5578 10.1951 10.5192C10.0011 10.4806 9.80004 10.5004 9.61732 10.5761C9.43459 10.6518 9.27841 10.78 9.16853 10.9444C9.05865 11.1089 9 11.3022 9 11.5C9 11.7652 9.10536 12.0196 9.29289 12.2071C9.48043 12.3946 9.73478 12.5 10 12.5ZM15 12.5C15.1978 12.5 15.3911 12.4414 15.5556 12.3315C15.72 12.2216 15.8482 12.0654 15.9239 11.8827C15.9996 11.7 16.0194 11.4989 15.9808 11.3049C15.9422 11.1109 15.847 10.9327 15.7071 10.7929C15.5673 10.653 15.3891 10.5578 15.1951 10.5192C15.0011 10.4806 14.8 10.5004 14.6173 10.5761C14.4346 10.6518 14.2784 10.78 14.1685 10.9444C14.0586 11.1089 14 11.3022 14 11.5C14 11.7652 14.1054 12.0196 14.2929 12.2071C14.4804 12.3946 14.7348 12.5 15 12.5ZM10 16.5C10.1978 16.5 10.3911 16.4414 10.5556 16.3315C10.72 16.2216 10.8482 16.0654 10.9239 15.8827C10.9996 15.7 11.0194 15.4989 10.9808 15.3049C10.9422 15.1109 10.847 14.9327 10.7071 14.7929C10.5673 14.653 10.3891 14.5578 10.1951 14.5192C10.0011 14.4806 9.80004 14.5004 9.61732 14.5761C9.43459 14.6518 9.27841 14.78 9.16853 14.9444C9.05865 15.1089 9 15.3022 9 15.5C9 15.7652 9.10536 16.0196 9.29289 16.2071C9.48043 16.3946 9.73478 16.5 10 16.5ZM15 16.5C15.1978 16.5 15.3911 16.4414 15.5556 16.3315C15.72 16.2216 15.8482 16.0654 15.9239 15.8827C15.9996 15.7 16.0194 15.4989 15.9808 15.3049C15.9422 15.1109 15.847 14.9327 15.7071 14.7929C15.5673 14.653 15.3891 14.5578 15.1951 14.5192C15.0011 14.4806 14.8 14.5004 14.6173 14.5761C14.4346 14.6518 14.2784 14.78 14.1685 14.9444C14.0586 15.1089 14 15.3022 14 15.5C14 15.7652 14.1054 16.0196 14.2929 16.2071C14.4804 16.3946 14.7348 16.5 15 16.5ZM5 12.5C5.19778 12.5 5.39112 12.4414 5.55557 12.3315C5.72002 12.2216 5.84819 12.0654 5.92388 11.8827C5.99957 11.7 6.01937 11.4989 5.98079 11.3049C5.9422 11.1109 5.84696 10.9327 5.70711 10.7929C5.56725 10.653 5.38907 10.5578 5.19509 10.5192C5.00111 10.4806 4.80004 10.5004 4.61732 10.5761C4.43459 10.6518 4.27841 10.78 4.16853 10.9444C4.05865 11.1089 4 11.3022 4 11.5C4 11.7652 4.10536 12.0196 4.29289 12.2071C4.48043 12.3946 4.73478 12.5 5 12.5ZM17 2.5H16V1.5C16 1.23478 15.8946 0.98043 15.7071 0.792893C15.5196 0.605357 15.2652 0.5 15 0.5C14.7348 0.5 14.4804 0.605357 14.2929 0.792893C14.1054 0.98043 14 1.23478 14 1.5V2.5H6V1.5C6 1.23478 5.89464 0.98043 5.70711 0.792893C5.51957 0.605357 5.26522 0.5 5 0.5C4.73478 0.5 4.48043 0.605357 4.29289 0.792893C4.10536 0.98043 4 1.23478 4 1.5V2.5H3C2.20435 2.5 1.44129 2.81607 0.87868 3.37868C0.316071 3.94129 0 4.70435 0 5.5V17.5C0 18.2956 0.316071 19.0587 0.87868 19.6213C1.44129 20.1839 2.20435 20.5 3 20.5H17C17.7956 20.5 18.5587 20.1839 19.1213 19.6213C19.6839 19.0587 20 18.2956 20 17.5V5.5C20 4.70435 19.6839 3.94129 19.1213 3.37868C18.5587 2.81607 17.7956 2.5 17 2.5ZM18 17.5C18 17.7652 17.8946 18.0196 17.7071 18.2071C17.5196 18.3946 17.2652 18.5 17 18.5H3C2.73478 18.5 2.48043 18.3946 2.29289 18.2071C2.10536 18.0196 2 17.7652 2 17.5V8.5H18V17.5ZM18 6.5H2V5.5C2 5.23478 2.10536 4.98043 2.29289 4.79289C2.48043 4.60536 2.73478 4.5 3 4.5H17C17.2652 4.5 17.5196 4.60536 17.7071 4.79289C17.8946 4.98043 18 5.23478 18 5.5V6.5ZM5 16.5C5.19778 16.5 5.39112 16.4414 5.55557 16.3315C5.72002 16.2216 5.84819 16.0654 5.92388 15.8827C5.99957 15.7 6.01937 15.4989 5.98079 15.3049C5.9422 15.1109 5.84696 14.9327 5.70711 14.7929C5.56725 14.653 5.38907 14.5578 5.19509 14.5192C5.00111 14.4806 4.80004 14.5004 4.61732 14.5761C4.43459 14.6518 4.27841 14.78 4.16853 14.9444C4.05865 15.1089 4 15.3022 4 15.5C4 15.7652 4.10536 16.0196 4.29289 16.2071C4.48043 16.3946 4.73478 16.5 5 16.5Z"
        fill="#51BBD5" />
</svg>