<svg width="89" height="34" viewBox="0 0 89 34" fill="none" xmlns="http://www.w3.org/2000/svg">
<path d="M12.593 5.84221V3C9.76482 3.28141 7.18995 4.40704 5.10754 6.10955L7.10553 8.12161C8.66734 6.91156 10.5387 6.09548 12.593 5.84221ZM22.8925 6.10955C20.81 4.40704 18.2352 3.28141 15.407 3V5.84221C17.4613 6.09548 19.3327 6.91156 20.8945 8.12161L22.8925 6.10955ZM25.1578 15.593H28C27.7186 12.7648 26.593 10.1899 24.8905 8.10754L22.8784 10.1055C24.0884 11.6673 24.9045 13.5387 25.1578 15.593ZM5.12161 10.1055L3.10955 8.10754C1.40704 10.1899 0.281407 12.7648 0 15.593H2.84221C3.09548 13.5387 3.91156 11.6673 5.12161 10.1055ZM2.84221 18.407H0C0.281407 21.2352 1.40704 23.81 3.10955 25.8925L5.12161 23.8804C3.91156 22.3327 3.09548 20.4613 2.84221 18.407ZM18.2211 17C18.2211 14.6643 16.3357 12.7789 14 12.7789C11.6643 12.7789 9.77889 14.6643 9.77889 17C9.77889 19.3357 11.6643 21.2211 14 21.2211C16.3357 21.2211 18.2211 19.3357 18.2211 17ZM22.8784 23.8945L24.8905 25.9065C26.593 23.8241 27.7186 21.2352 28 18.4211H25.1578C24.9045 20.4613 24.0884 22.3327 22.8784 23.8945ZM15.407 28.1578V31C18.2352 30.7186 20.81 29.593 22.8925 27.8905L20.8804 25.8784C19.3327 27.0884 17.4613 27.9045 15.407 28.1578ZM5.10754 27.8905C7.18995 29.593 9.77889 30.7186 12.593 31V28.1578C10.5387 27.9045 8.66734 27.0884 7.10553 25.8784L5.10754 27.8905Z" fill="#51BBD5"/>
<path d="M46.788 26.812C45.3667 26.812 44.0927 26.4653 42.966 25.772C41.8567 25.0613 40.9727 24.0473 40.314 22.73C39.6727 21.4127 39.352 19.8267 39.352 17.972C39.352 16.1347 39.6813 14.5573 40.34 13.24C40.9987 11.9227 41.9 10.9087 43.044 10.198C44.188 9.48733 45.4793 9.132 46.918 9.132C47.958 9.132 48.8767 9.34867 49.674 9.782C50.4713 10.198 51.1127 10.6833 51.598 11.238L50.428 12.642C49.9773 12.1567 49.466 11.7667 48.894 11.472C48.322 11.1773 47.672 11.03 46.944 11.03C45.8693 11.03 44.9247 11.316 44.11 11.888C43.3127 12.4427 42.6887 13.2313 42.238 14.254C41.8047 15.2767 41.588 16.4987 41.588 17.92C41.588 19.3413 41.8047 20.5807 42.238 21.638C42.6713 22.678 43.278 23.484 44.058 24.056C44.8553 24.628 45.7913 24.914 46.866 24.914C47.6807 24.914 48.4087 24.7407 49.05 24.394C49.6913 24.0473 50.2807 23.5793 50.818 22.99L52.014 24.342C51.338 25.122 50.5753 25.7287 49.726 26.162C48.8767 26.5953 47.8973 26.812 46.788 26.812ZM59.8995 26.812C58.8768 26.812 57.9148 26.552 57.0135 26.032C56.1295 25.512 55.4102 24.758 54.8555 23.77C54.3182 22.782 54.0495 21.5947 54.0495 20.208C54.0495 18.7867 54.3182 17.582 54.8555 16.594C55.4102 15.606 56.1295 14.852 57.0135 14.332C57.9148 13.812 58.8768 13.552 59.8995 13.552C60.9395 13.552 61.9015 13.812 62.7855 14.332C63.6695 14.852 64.3802 15.606 64.9175 16.594C65.4722 17.582 65.7495 18.7867 65.7495 20.208C65.7495 21.5947 65.4722 22.782 64.9175 23.77C64.3802 24.758 63.6695 25.512 62.7855 26.032C61.9015 26.552 60.9395 26.812 59.8995 26.812ZM59.8995 25.044C60.9915 25.044 61.8668 24.602 62.5255 23.718C63.2015 22.8167 63.5395 21.6467 63.5395 20.208C63.5395 18.752 63.2015 17.5733 62.5255 16.672C61.8668 15.7707 60.9915 15.32 59.8995 15.32C58.8248 15.32 57.9495 15.7707 57.2735 16.672C56.5975 17.5733 56.2595 18.752 56.2595 20.208C56.2595 21.6467 56.5975 22.8167 57.2735 23.718C57.9495 24.602 58.8248 25.044 59.8995 25.044ZM69.0773 26.5V13.864H70.8453L71.0273 16.152H71.1053C71.5386 15.3547 72.0673 14.722 72.6913 14.254C73.3153 13.786 73.9826 13.552 74.6933 13.552C75.196 13.552 75.6466 13.6387 76.0453 13.812L75.6293 15.684C75.4213 15.6147 75.2306 15.5627 75.0573 15.528C74.884 15.4933 74.6673 15.476 74.4073 15.476C73.87 15.476 73.3066 15.6927 72.7173 16.126C72.1453 16.5593 71.6426 17.3133 71.2093 18.388V26.5H69.0773ZM82.9591 26.812C81.8324 26.812 80.8097 26.552 79.8911 26.032C78.9724 25.4947 78.2444 24.732 77.7071 23.744C77.1697 22.756 76.9011 21.5773 76.9011 20.208C76.9011 18.8213 77.1697 17.634 77.7071 16.646C78.2617 15.658 78.9724 14.8953 79.8391 14.358C80.7057 13.8207 81.6157 13.552 82.5691 13.552C84.1811 13.552 85.4204 14.0893 86.2871 15.164C87.1711 16.2387 87.6131 17.6773 87.6131 19.48C87.6131 19.7053 87.6044 19.9307 87.5871 20.156C87.5871 20.364 87.5697 20.546 87.5351 20.702H79.0071C79.0937 22.0367 79.5097 23.1027 80.2551 23.9C81.0177 24.6973 82.0057 25.096 83.2191 25.096C83.8257 25.096 84.3804 25.0093 84.8831 24.836C85.4031 24.6453 85.8971 24.4027 86.3651 24.108L87.1191 25.512C86.5817 25.8587 85.9664 26.162 85.2731 26.422C84.5971 26.682 83.8257 26.812 82.9591 26.812ZM78.9811 19.168H85.7411C85.7411 17.8853 85.4637 16.9147 84.9091 16.256C84.3717 15.58 83.6091 15.242 82.6211 15.242C81.7371 15.242 80.9397 15.5887 80.2291 16.282C79.5357 16.958 79.1197 17.92 78.9811 19.168Z" fill="#212121"/>
</svg>
