<svg width="22" height="23" viewBox="0 0 22 23" fill="none" xmlns="http://www.w3.org/2000/svg">
    <path d="M21.3744 9.50727C21.5026 10.2456 21.5666 10.9936 21.5655 11.743C21.5655 15.0898 20.3692 17.9195 18.2875 19.8349H18.2902C16.4697 21.5165 13.9672 22.49 11 22.49C8.08262 22.49 5.28472 21.3311 3.22182 19.2682C1.15893 17.2053 0 14.4074 0 11.49C0 8.57263 1.15893 5.77474 3.22182 3.71184C5.28472 1.64894 8.08262 0.490014 11 0.490014C13.7307 0.458034 16.3678 1.48391 18.359 3.35276L15.2185 6.49327C14.0833 5.41111 12.5682 4.8185 11 4.84326C8.13037 4.84326 5.6925 6.77926 4.8235 9.38627C4.36275 10.7523 4.36275 12.2318 4.8235 13.5979H4.82762C5.70075 16.2008 8.1345 18.1368 11.0041 18.1368C12.4864 18.1368 13.7596 17.7573 14.7469 17.0863H14.7427C15.316 16.7065 15.8064 16.2145 16.1842 15.64C16.5621 15.0655 16.8197 14.4204 16.9414 13.7436H11V9.50864L21.3744 9.50727Z" fill="#51BBD5"/>
</svg>
