<svg width="206" height="34" viewBox="0 0 206 34" fill="none" xmlns="http://www.w3.org/2000/svg">
<path d="M21.9133 31H0.000286818M14.6316 20.697C14.1115 21.34 13.4609 21.8374 12.7332 22.1482C12.0056 22.459 11.2217 22.5744 10.4459 22.4849C9.67008 22.3954 8.92455 22.1035 8.27054 21.6333C7.61652 21.1631 7.07269 20.5279 6.68372 19.7799C6.29474 19.0319 6.07173 18.1925 6.03299 17.3307C5.99426 16.4688 6.14091 15.6091 6.4609 14.8221C6.78089 14.0352 7.26508 13.3434 7.87371 12.8037C8.48233 12.264 9.19801 11.8918 9.96196 11.7176M9.96196 11.7176L12.6003 14.6364L16.4351 10.3939L10.4419 3.76364C10.2577 3.55986 10.0391 3.39821 9.79843 3.28793C9.55779 3.17764 9.29988 3.12088 9.03942 3.12088C8.77895 3.12088 8.52104 3.17764 8.28041 3.28793C8.03978 3.39821 7.82114 3.55986 7.63698 3.76364L6.60707 4.90303C6.42287 5.10676 6.27676 5.34864 6.17707 5.61485C6.07738 5.88106 6.02608 6.16639 6.02608 6.45455C6.02608 6.7427 6.07738 7.02803 6.17707 7.29424C6.27676 7.56045 6.42287 7.80233 6.60707 8.00606L7.38717 8.86909M9.96196 11.7176L7.38717 8.86909M18.4905 20.697C18.0028 21.9298 17.2743 23.0279 16.3574 23.9123C15.4406 24.7967 14.358 25.4455 13.1876 25.8121M13.1876 25.8121C12.5564 25.2467 11.7689 24.9381 10.9568 24.9381C10.1447 24.9381 9.35717 25.2467 8.72606 25.8121M13.1876 25.8121C13.581 26.1647 13.9016 26.6066 14.1276 27.1079L14.7916 28.5758C14.7916 28.5758 15.8872 31 18.0785 31H3.83507C6.02637 31 7.12203 28.5758 7.12203 28.5758L7.78599 27.1079C8.01206 26.6066 8.33261 26.1648 8.72606 25.8121M16.9829 14.0303L15.3394 15.8485M21.9133 18.8788H12.0525M7.38717 8.86909C5.88464 9.67125 4.63827 10.9602 3.81366 12.5646C2.98905 14.1691 2.62523 16.0132 2.77053 17.8519C2.91583 19.6905 3.56337 21.4368 4.62712 22.8586C5.69088 24.2805 7.1205 25.3106 8.72606 25.8121M7.12203 4.33333L5.91681 3" stroke="#51BBD5"/>
<path d="M34.2531 26.5V9.444H36.4111V24.654H43.8731V26.5H34.2531ZM49.6016 26.812C48.5443 26.812 47.6603 26.5 46.9496 25.876C46.2563 25.2347 45.9096 24.3507 45.9096 23.224C45.9096 21.8373 46.525 20.78 47.7556 20.052C49.0036 19.3067 50.971 18.7867 53.6576 18.492C53.6576 17.9547 53.5796 17.4433 53.4236 16.958C53.285 16.4727 53.025 16.0827 52.6436 15.788C52.2796 15.476 51.751 15.32 51.0576 15.32C50.3296 15.32 49.645 15.4587 49.0036 15.736C48.3623 16.0133 47.7903 16.3253 47.2876 16.672L46.4556 15.19C47.045 14.8087 47.7643 14.4447 48.6136 14.098C49.4803 13.734 50.4163 13.552 51.4216 13.552C52.9643 13.552 54.0823 14.0287 54.7756 14.982C55.469 15.918 55.8156 17.1747 55.8156 18.752V26.5H54.0476L53.8656 24.992H53.7876C53.1983 25.4773 52.5483 25.902 51.8376 26.266C51.1443 26.63 50.399 26.812 49.6016 26.812ZM50.2256 25.096C50.8323 25.096 51.4043 24.9487 51.9416 24.654C52.479 24.3593 53.051 23.9433 53.6576 23.406V19.896C51.5603 20.156 50.087 20.546 49.2376 21.066C48.4056 21.586 47.9896 22.2533 47.9896 23.068C47.9896 23.7787 48.2063 24.2987 48.6396 24.628C49.073 24.94 49.6016 25.096 50.2256 25.096ZM65.3812 26.812C64.7918 26.812 64.1765 26.6733 63.5352 26.396C62.9112 26.1013 62.3218 25.7027 61.7672 25.2H61.6892L61.5072 26.5H59.7912V7.988H61.9232V13.032L61.8712 15.32C62.4432 14.8173 63.0672 14.4013 63.7432 14.072C64.4365 13.7253 65.1298 13.552 65.8232 13.552C67.4698 13.552 68.7178 14.1327 69.5672 15.294C70.4165 16.4553 70.8412 18.0153 70.8412 19.974C70.8412 21.4127 70.5812 22.6433 70.0612 23.666C69.5585 24.6887 68.8912 25.4687 68.0592 26.006C67.2445 26.5433 66.3518 26.812 65.3812 26.812ZM65.0172 25.018C66.0572 25.018 66.9152 24.576 67.5912 23.692C68.2845 22.7907 68.6312 21.56 68.6312 20C68.6312 18.6133 68.3712 17.4953 67.8512 16.646C67.3485 15.7793 66.4992 15.346 65.3032 15.346C64.7658 15.346 64.2198 15.4933 63.6652 15.788C63.1105 16.0827 62.5298 16.5073 61.9232 17.062V23.692C62.4778 24.1773 63.0238 24.524 63.5612 24.732C64.1158 24.9227 64.6012 25.018 65.0172 25.018ZM83.1114 26.5V11.264H77.9634V9.444H90.4434V11.264H85.2954V26.5H83.1114ZM96.7022 26.812C95.5756 26.812 94.5529 26.552 93.6342 26.032C92.7156 25.4947 91.9876 24.732 91.4502 23.744C90.9129 22.756 90.6442 21.5773 90.6442 20.208C90.6442 18.8213 90.9129 17.634 91.4502 16.646C92.0049 15.658 92.7156 14.8953 93.5822 14.358C94.4489 13.8207 95.3589 13.552 96.3122 13.552C97.9242 13.552 99.1636 14.0893 100.03 15.164C100.914 16.2387 101.356 17.6773 101.356 19.48C101.356 19.7053 101.348 19.9307 101.33 20.156C101.33 20.364 101.313 20.546 101.278 20.702H92.7502C92.8369 22.0367 93.2529 23.1027 93.9982 23.9C94.7609 24.6973 95.7489 25.096 96.9622 25.096C97.5689 25.096 98.1236 25.0093 98.6262 24.836C99.1462 24.6453 99.6402 24.4027 100.108 24.108L100.862 25.512C100.325 25.8587 99.7096 26.162 99.0162 26.422C98.3402 26.682 97.5689 26.812 96.7022 26.812ZM92.7242 19.168H99.4842C99.4842 17.8853 99.2069 16.9147 98.6522 16.256C98.1149 15.58 97.3522 15.242 96.3642 15.242C95.4802 15.242 94.6829 15.5887 93.9722 16.282C93.2789 16.958 92.8629 17.92 92.7242 19.168ZM107.781 26.812C106.879 26.812 106.021 26.6473 105.207 26.318C104.392 25.9713 103.681 25.5553 103.075 25.07L104.141 23.64C104.695 24.0733 105.267 24.4373 105.857 24.732C106.446 25.0093 107.113 25.148 107.859 25.148C108.691 25.148 109.315 24.9573 109.731 24.576C110.147 24.1773 110.355 23.7093 110.355 23.172C110.355 22.7387 110.207 22.3747 109.913 22.08C109.635 21.7853 109.271 21.5427 108.821 21.352C108.387 21.144 107.937 20.9533 107.469 20.78C106.879 20.5547 106.299 20.3033 105.727 20.026C105.155 19.7313 104.687 19.3587 104.323 18.908C103.959 18.44 103.777 17.8507 103.777 17.14C103.777 16.1173 104.158 15.268 104.921 14.592C105.701 13.8987 106.775 13.552 108.145 13.552C108.925 13.552 109.653 13.6907 110.329 13.968C111.005 14.2453 111.585 14.5833 112.071 14.982L111.031 16.334C110.597 16.0047 110.147 15.736 109.679 15.528C109.211 15.32 108.699 15.216 108.145 15.216C107.347 15.216 106.758 15.398 106.377 15.762C106.013 16.126 105.831 16.5507 105.831 17.036C105.831 17.4347 105.961 17.764 106.221 18.024C106.481 18.2667 106.819 18.4833 107.235 18.674C107.651 18.8473 108.093 19.0293 108.561 19.22C109.167 19.4453 109.765 19.7053 110.355 20C110.944 20.2773 111.429 20.6587 111.811 21.144C112.209 21.612 112.409 22.2447 112.409 23.042C112.409 23.718 112.227 24.342 111.863 24.914C111.516 25.486 110.996 25.9453 110.303 26.292C109.627 26.6387 108.786 26.812 107.781 26.812ZM118.841 26.812C117.489 26.812 116.545 26.422 116.007 25.642C115.487 24.862 115.227 23.848 115.227 22.6V15.606H113.355V13.994L115.331 13.864L115.591 10.328H117.385V13.864H120.791V15.606H117.385V22.626C117.385 23.406 117.524 24.0127 117.801 24.446C118.096 24.862 118.607 25.07 119.335 25.07C119.561 25.07 119.803 25.0353 120.063 24.966C120.323 24.8793 120.557 24.8013 120.765 24.732L121.181 26.344C120.835 26.4653 120.453 26.5693 120.037 26.656C119.639 26.76 119.24 26.812 118.841 26.812ZM129.062 26.5V9.444H134.392C135.553 9.444 136.584 9.6 137.486 9.912C138.387 10.2067 139.089 10.7093 139.592 11.42C140.112 12.1133 140.372 13.0493 140.372 14.228C140.372 15.5453 140.025 16.6113 139.332 17.426C138.638 18.2233 137.702 18.7693 136.524 19.064L140.866 26.5H138.422L134.314 19.298H131.22V26.5H129.062ZM131.22 17.53H134.08C135.414 17.53 136.437 17.2613 137.148 16.724C137.858 16.1693 138.214 15.3373 138.214 14.228C138.214 13.1013 137.858 12.3127 137.148 11.862C136.437 11.4113 135.414 11.186 134.08 11.186H131.22V17.53ZM148.525 26.812C147.398 26.812 146.375 26.552 145.457 26.032C144.538 25.4947 143.81 24.732 143.273 23.744C142.735 22.756 142.467 21.5773 142.467 20.208C142.467 18.8213 142.735 17.634 143.273 16.646C143.827 15.658 144.538 14.8953 145.405 14.358C146.271 13.8207 147.181 13.552 148.135 13.552C149.747 13.552 150.986 14.0893 151.853 15.164C152.737 16.2387 153.179 17.6773 153.179 19.48C153.179 19.7053 153.17 19.9307 153.153 20.156C153.153 20.364 153.135 20.546 153.101 20.702H144.573C144.659 22.0367 145.075 23.1027 145.821 23.9C146.583 24.6973 147.571 25.096 148.785 25.096C149.391 25.096 149.946 25.0093 150.449 24.836C150.969 24.6453 151.463 24.4027 151.931 24.108L152.685 25.512C152.147 25.8587 151.532 26.162 150.839 26.422C150.163 26.682 149.391 26.812 148.525 26.812ZM144.547 19.168H151.307C151.307 17.8853 151.029 16.9147 150.475 16.256C149.937 15.58 149.175 15.242 148.187 15.242C147.303 15.242 146.505 15.5887 145.795 16.282C145.101 16.958 144.685 17.92 144.547 19.168ZM159.603 26.812C158.702 26.812 157.844 26.6473 157.029 26.318C156.214 25.9713 155.504 25.5553 154.897 25.07L155.963 23.64C156.518 24.0733 157.09 24.4373 157.679 24.732C158.268 25.0093 158.936 25.148 159.681 25.148C160.513 25.148 161.137 24.9573 161.553 24.576C161.969 24.1773 162.177 23.7093 162.177 23.172C162.177 22.7387 162.03 22.3747 161.735 22.08C161.458 21.7853 161.094 21.5427 160.643 21.352C160.21 21.144 159.759 20.9533 159.291 20.78C158.702 20.5547 158.121 20.3033 157.549 20.026C156.977 19.7313 156.509 19.3587 156.145 18.908C155.781 18.44 155.599 17.8507 155.599 17.14C155.599 16.1173 155.98 15.268 156.743 14.592C157.523 13.8987 158.598 13.552 159.967 13.552C160.747 13.552 161.475 13.6907 162.151 13.968C162.827 14.2453 163.408 14.5833 163.893 14.982L162.853 16.334C162.42 16.0047 161.969 15.736 161.501 15.528C161.033 15.32 160.522 15.216 159.967 15.216C159.17 15.216 158.58 15.398 158.199 15.762C157.835 16.126 157.653 16.5507 157.653 17.036C157.653 17.4347 157.783 17.764 158.043 18.024C158.303 18.2667 158.641 18.4833 159.057 18.674C159.473 18.8473 159.915 19.0293 160.383 19.22C160.99 19.4453 161.588 19.7053 162.177 20C162.766 20.2773 163.252 20.6587 163.633 21.144C164.032 21.612 164.231 22.2447 164.231 23.042C164.231 23.718 164.049 24.342 163.685 24.914C163.338 25.486 162.818 25.9453 162.125 26.292C161.449 26.6387 160.608 26.812 159.603 26.812ZM170.886 26.812C169.551 26.812 168.572 26.396 167.948 25.564C167.324 24.7147 167.012 23.484 167.012 21.872V13.864H169.17V21.586C169.17 22.7647 169.352 23.6227 169.716 24.16C170.097 24.6973 170.704 24.966 171.536 24.966C172.194 24.966 172.775 24.8013 173.278 24.472C173.798 24.1253 174.352 23.5793 174.942 22.834V13.864H177.074V26.5H175.306L175.124 24.524H175.046C174.456 25.2173 173.832 25.772 173.174 26.188C172.515 26.604 171.752 26.812 170.886 26.812ZM183.598 26.812C182.801 26.812 182.22 26.5693 181.856 26.084C181.509 25.5813 181.336 24.8707 181.336 23.952V7.988H183.468V24.108C183.468 24.4373 183.529 24.68 183.65 24.836C183.771 24.9747 183.91 25.044 184.066 25.044C184.135 25.044 184.196 25.044 184.248 25.044C184.317 25.0267 184.413 25.0093 184.534 24.992L184.82 26.604C184.681 26.6733 184.517 26.7253 184.326 26.76C184.135 26.7947 183.893 26.812 183.598 26.812ZM191.941 26.812C190.589 26.812 189.644 26.422 189.107 25.642C188.587 24.862 188.327 23.848 188.327 22.6V15.606H186.455V13.994L188.431 13.864L188.691 10.328H190.485V13.864H193.891V15.606H190.485V22.626C190.485 23.406 190.624 24.0127 190.901 24.446C191.196 24.862 191.707 25.07 192.435 25.07C192.66 25.07 192.903 25.0353 193.163 24.966C193.423 24.8793 193.657 24.8013 193.865 24.732L194.281 26.344C193.934 26.4653 193.553 26.5693 193.137 26.656C192.738 26.76 192.34 26.812 191.941 26.812ZM199.796 26.812C198.895 26.812 198.037 26.6473 197.222 26.318C196.408 25.9713 195.697 25.5553 195.09 25.07L196.156 23.64C196.711 24.0733 197.283 24.4373 197.872 24.732C198.462 25.0093 199.129 25.148 199.874 25.148C200.706 25.148 201.33 24.9573 201.746 24.576C202.162 24.1773 202.37 23.7093 202.37 23.172C202.37 22.7387 202.223 22.3747 201.928 22.08C201.651 21.7853 201.287 21.5427 200.836 21.352C200.403 21.144 199.952 20.9533 199.484 20.78C198.895 20.5547 198.314 20.3033 197.742 20.026C197.17 19.7313 196.702 19.3587 196.338 18.908C195.974 18.44 195.792 17.8507 195.792 17.14C195.792 16.1173 196.174 15.268 196.936 14.592C197.716 13.8987 198.791 13.552 200.16 13.552C200.94 13.552 201.668 13.6907 202.344 13.968C203.02 14.2453 203.601 14.5833 204.086 14.982L203.046 16.334C202.613 16.0047 202.162 15.736 201.694 15.528C201.226 15.32 200.715 15.216 200.16 15.216C199.363 15.216 198.774 15.398 198.392 15.762C198.028 16.126 197.846 16.5507 197.846 17.036C197.846 17.4347 197.976 17.764 198.236 18.024C198.496 18.2667 198.834 18.4833 199.25 18.674C199.666 18.8473 200.108 19.0293 200.576 19.22C201.183 19.4453 201.781 19.7053 202.37 20C202.96 20.2773 203.445 20.6587 203.826 21.144C204.225 21.612 204.424 22.2447 204.424 23.042C204.424 23.718 204.242 24.342 203.878 24.914C203.532 25.486 203.012 25.9453 202.318 26.292C201.642 26.6387 200.802 26.812 199.796 26.812Z" fill="#212121"/>
</svg>
