<svg width="553" height="19" viewBox="0 0 553 19" fill="none" xmlns="http://www.w3.org/2000/svg">
<line x1="2.07043e-06" y1="8.98969" x2="259.278" y2="8.99076" stroke="#D9D9D9"/>
<path d="M272.614 16.6822C271.985 16.6822 271.393 16.5222 270.838 16.2022C270.294 15.8822 269.852 15.4182 269.51 14.8102C269.18 14.2022 269.014 13.4716 269.014 12.6182C269.014 11.7436 269.18 11.0022 269.51 10.3942C269.852 9.78623 270.294 9.32223 270.838 9.00223C271.393 8.68223 271.985 8.52223 272.614 8.52223C273.254 8.52223 273.846 8.68223 274.39 9.00223C274.934 9.32223 275.372 9.78623 275.702 10.3942C276.044 11.0022 276.214 11.7436 276.214 12.6182C276.214 13.4716 276.044 14.2022 275.702 14.8102C275.372 15.4182 274.934 15.8822 274.39 16.2022C273.846 16.5222 273.254 16.6822 272.614 16.6822ZM272.614 15.5942C273.286 15.5942 273.825 15.3222 274.23 14.7782C274.646 14.2236 274.854 13.5036 274.854 12.6182C274.854 11.7222 274.646 10.9969 274.23 10.4422C273.825 9.88757 273.286 9.61023 272.614 9.61023C271.953 9.61023 271.414 9.88757 270.998 10.4422C270.582 10.9969 270.374 11.7222 270.374 12.6182C270.374 13.5036 270.582 14.2236 270.998 14.7782C271.414 15.3222 271.953 15.5942 272.614 15.5942ZM278.262 16.4902V8.71423H279.35L279.462 10.1222H279.51C279.777 9.63157 280.102 9.24223 280.486 8.95423C280.87 8.66623 281.281 8.52223 281.718 8.52223C282.028 8.52223 282.305 8.57557 282.55 8.68223L282.294 9.83423C282.166 9.79157 282.049 9.75957 281.942 9.73823C281.836 9.7169 281.702 9.70623 281.542 9.70623C281.212 9.70623 280.865 9.83957 280.502 10.1062C280.15 10.3729 279.841 10.8369 279.574 11.4982V16.4902H278.262Z" fill="#212121"/>
<line x1="293.278" y1="8.98969" x2="552.556" y2="8.99076" stroke="#D9D9D9"/>
</svg>
