<svg width="100" height="28" viewBox="0 0 100 28" fill="none" xmlns="http://www.w3.org/2000/svg">
<path d="M16.234 22.608V27H0.736V0.881998H6.136V22.608H16.234ZM43.972 13.932C43.972 15.84 43.648 17.61 43 19.242C42.364 20.874 41.458 22.284 40.282 23.472C39.118 24.66 37.714 25.596 36.07 26.28C34.426 26.952 32.602 27.288 30.598 27.288C28.594 27.288 26.77 26.952 25.126 26.28C23.482 25.596 22.072 24.66 20.896 23.472C19.72 22.284 18.808 20.874 18.16 19.242C17.524 17.61 17.206 15.84 17.206 13.932C17.206 12.024 17.524 10.26 18.16 8.64C18.808 7.008 19.72 5.598 20.896 4.41C22.072 3.222 23.482 2.292 25.126 1.62C26.77 0.935998 28.594 0.593998 30.598 0.593998C32.602 0.593998 34.426 0.935998 36.07 1.62C37.714 2.292 39.118 3.228 40.282 4.428C41.458 5.616 42.364 7.026 43 8.658C43.648 10.278 43.972 12.036 43.972 13.932ZM38.446 13.932C38.446 12.564 38.266 11.34 37.906 10.26C37.546 9.168 37.024 8.244 36.34 7.488C35.668 6.72 34.846 6.138 33.874 5.742C32.914 5.334 31.822 5.13 30.598 5.13C29.374 5.13 28.276 5.334 27.304 5.742C26.332 6.138 25.504 6.72 24.82 7.488C24.148 8.244 23.632 9.168 23.272 10.26C22.912 11.34 22.732 12.564 22.732 13.932C22.732 15.312 22.912 16.548 23.272 17.64C23.632 18.72 24.148 19.638 24.82 20.394C25.504 21.15 26.332 21.732 27.304 22.14C28.276 22.536 29.374 22.734 30.598 22.734C31.822 22.734 32.914 22.536 33.874 22.14C34.846 21.732 35.668 21.15 36.34 20.394C37.024 19.638 37.546 18.72 37.906 17.64C38.266 16.548 38.446 15.312 38.446 13.932ZM60.6237 13.698H69.5877V24.48C68.2557 25.452 66.8337 26.166 65.3217 26.622C63.8217 27.066 62.2317 27.288 60.5517 27.288C58.4037 27.288 56.4597 26.958 54.7197 26.298C52.9797 25.626 51.4917 24.696 50.2557 23.508C49.0197 22.32 48.0657 20.91 47.3937 19.278C46.7217 17.646 46.3857 15.864 46.3857 13.932C46.3857 11.976 46.7037 10.182 47.3397 8.55C47.9877 6.918 48.9057 5.514 50.0937 4.338C51.2817 3.162 52.7157 2.244 54.3957 1.584C56.0877 0.923998 57.9777 0.593998 60.0657 0.593998C61.1457 0.593998 62.1537 0.683998 63.0897 0.864C64.0257 1.032 64.8897 1.272 65.6817 1.584C66.4737 1.884 67.1997 2.244 67.8597 2.664C68.5197 3.084 69.1197 3.546 69.6597 4.05L68.0937 6.462C67.8537 6.846 67.5417 7.08 67.1577 7.164C66.7737 7.248 66.3537 7.152 65.8977 6.876C65.4657 6.612 65.0397 6.378 64.6197 6.174C64.2117 5.958 63.7737 5.772 63.3057 5.616C62.8377 5.46 62.3277 5.34 61.7757 5.256C61.2237 5.172 60.5877 5.13 59.8677 5.13C58.6557 5.13 57.5577 5.34 56.5737 5.76C55.5897 6.18 54.7497 6.774 54.0537 7.542C53.3697 8.31 52.8417 9.234 52.4697 10.314C52.0977 11.394 51.9117 12.6 51.9117 13.932C51.9117 15.372 52.1157 16.662 52.5237 17.802C52.9317 18.93 53.5077 19.884 54.2517 20.664C54.9957 21.444 55.8837 22.038 56.9157 22.446C57.9597 22.854 59.1177 23.058 60.3897 23.058C61.2537 23.058 62.0217 22.974 62.6937 22.806C63.3777 22.626 64.0437 22.386 64.6917 22.086V17.694H61.7397C61.3917 17.694 61.1157 17.604 60.9117 17.424C60.7197 17.232 60.6237 16.992 60.6237 16.704V13.698ZM99.2376 13.932C99.2376 15.84 98.9136 17.61 98.2656 19.242C97.6296 20.874 96.7236 22.284 95.5476 23.472C94.3836 24.66 92.9796 25.596 91.3356 26.28C89.6916 26.952 87.8676 27.288 85.8636 27.288C83.8596 27.288 82.0356 26.952 80.3916 26.28C78.7476 25.596 77.3376 24.66 76.1616 23.472C74.9856 22.284 74.0736 20.874 73.4256 19.242C72.7896 17.61 72.4716 15.84 72.4716 13.932C72.4716 12.024 72.7896 10.26 73.4256 8.64C74.0736 7.008 74.9856 5.598 76.1616 4.41C77.3376 3.222 78.7476 2.292 80.3916 1.62C82.0356 0.935998 83.8596 0.593998 85.8636 0.593998C87.8676 0.593998 89.6916 0.935998 91.3356 1.62C92.9796 2.292 94.3836 3.228 95.5476 4.428C96.7236 5.616 97.6296 7.026 98.2656 8.658C98.9136 10.278 99.2376 12.036 99.2376 13.932ZM93.7116 13.932C93.7116 12.564 93.5316 11.34 93.1716 10.26C92.8116 9.168 92.2896 8.244 91.6056 7.488C90.9336 6.72 90.1116 6.138 89.1396 5.742C88.1796 5.334 87.0876 5.13 85.8636 5.13C84.6396 5.13 83.5416 5.334 82.5696 5.742C81.5976 6.138 80.7696 6.72 80.0856 7.488C79.4136 8.244 78.8976 9.168 78.5376 10.26C78.1776 11.34 77.9976 12.564 77.9976 13.932C77.9976 15.312 78.1776 16.548 78.5376 17.64C78.8976 18.72 79.4136 19.638 80.0856 20.394C80.7696 21.15 81.5976 21.732 82.5696 22.14C83.5416 22.536 84.6396 22.734 85.8636 22.734C87.0876 22.734 88.1796 22.536 89.1396 22.14C90.1116 21.732 90.9336 21.15 91.6056 20.394C92.2896 19.638 92.8116 18.72 93.1716 17.64C93.5316 16.548 93.7116 15.312 93.7116 13.932Z" fill="#111111"/>
</svg>
