<svg width="22" height="22" viewBox="0 0 22 22" fill="none" xmlns="http://www.w3.org/2000/svg">
    <path d="M8.95833 2.58325H13.0417C13.2737 2.58325 13.4963 2.67544 13.6604 2.83953C13.8245 3.00363 13.9167 3.22619 13.9167 3.45825V5.49992H8.08333V3.45825C8.08333 3.22619 8.17552 3.00363 8.33962 2.83953C8.50371 2.67544 8.72627 2.58325 8.95833 2.58325ZM6.33333 3.45825V5.49992H4.29167C3.28605 5.49992 2.32163 5.8994 1.61055 6.61047C0.899478 7.32155 0.5 8.28597 0.5 9.29158V18.0416C0.5 19.0472 0.899478 20.0116 1.61055 20.7227C2.32163 21.4338 3.28605 21.8333 4.29167 21.8333H17.7083C18.7139 21.8333 19.6784 21.4338 20.3894 20.7227C21.1005 20.0116 21.5 19.0472 21.5 18.0416V9.29158C21.5 8.28597 21.1005 7.32155 20.3894 6.61047C19.6784 5.8994 18.7139 5.49992 17.7083 5.49992H15.6667V3.45825C15.6667 2.76206 15.3901 2.09438 14.8978 1.6021C14.4055 1.10981 13.7379 0.833252 13.0417 0.833252H8.95833C8.26214 0.833252 7.59446 1.10981 7.10218 1.6021C6.6099 2.09438 6.33333 2.76206 6.33333 3.45825ZM17.7083 7.24992C18.8353 7.24992 19.75 8.16459 19.75 9.29158V18.0416C19.75 18.5831 19.5349 19.1024 19.152 19.4853C18.7691 19.8681 18.2498 20.0833 17.7083 20.0833H4.29167C3.75018 20.0833 3.23088 19.8681 2.84799 19.4853C2.4651 19.1024 2.25 18.5831 2.25 18.0416V9.29158C2.25 8.16459 3.16467 7.24992 4.29167 7.24992H17.7083ZM10.4167 11.0416V13.0833H8.375C8.14294 13.0833 7.92038 13.1754 7.75628 13.3395C7.59219 13.5036 7.5 13.7262 7.5 13.9583C7.5 14.1903 7.59219 14.4129 7.75628 14.577C7.92038 14.7411 8.14294 14.8333 8.375 14.8333H10.4167V16.8749C10.4167 17.107 10.5089 17.3295 10.6729 17.4936C10.837 17.6577 11.0596 17.7499 11.2917 17.7499C11.5237 17.7499 11.7463 17.6577 11.9104 17.4936C12.0745 17.3295 12.1667 17.107 12.1667 16.8749V14.8333H14.2083C14.4404 14.8333 14.663 14.7411 14.8271 14.577C14.9911 14.4129 15.0833 14.1903 15.0833 13.9583C15.0833 13.7262 14.9911 13.5036 14.8271 13.3395C14.663 13.1754 14.4404 13.0833 14.2083 13.0833H12.1667V11.0416C12.1667 10.8095 12.0745 10.587 11.9104 10.4229C11.7463 10.2588 11.5237 10.1666 11.2917 10.1666C11.0596 10.1666 10.837 10.2588 10.6729 10.4229C10.5089 10.587 10.4167 10.8095 10.4167 11.0416Z" fill="#51BBD5"/>
</svg>
