<svg width="172" height="26" viewBox="0 0 172 26" fill="none" xmlns="http://www.w3.org/2000/svg">
    <path
        d="M 8.7 19.2 H 5.7 C 4.7 19.2 3.6 18.8 2.9 18.1 C 2.1 17.3 1.7 16.3 1.7 15.2 V 6.2 C 1.7 5.2 2.1 4.2 2.9 3.4 C 3.6 2.7 4.7 2.2 5.7 2.2 H 16.7 C 17.8 2.2 18.8 2.7 19.5 3.4 C 20.3 4.2 20.7 5.2 20.7 6.2 V 9.2 M 7.7 1.2 V 3.2 M 14.7 1.2 V 3.2 M 1.7 7.2 H 20.7 M 18.2 14.9 L 16.7 16.4"
        stroke="#51bbd5" stroke-width="2" stroke-linecap="round" stroke-linejoin="round" />
    <path
        d="M 16.7 21.2 C 19.5 21.2 21.7 19 21.7 16.2 C 21.7 13.5 19.5 11.2 16.7 11.2 C 14 11.2 11.7 13.5 11.7 16.2 C 11.7 19 14 21.2 16.7 21.2 Z"
        stroke="#51bbd5" stroke-width="2" stroke-linecap="round" stroke-linejoin="round" />
    <path
        d="M 33.9 20.7 V 3.7 H 37.3 L 40.3 12.1 C 40.5 12.6 40.7 13.2 40.8 13.7 C 41 14.3 41.2 14.8 41.4 15.4 H 41.5 C 41.7 14.8 41.9 14.3 42 13.7 C 42.2 13.2 42.4 12.6 42.6 12.1 L 45.5 3.7 H 48.9 V 20.7 H 46.1 V 13 C 46.1 12.4 46.2 11.9 46.2 11.2 C 46.3 10.6 46.3 9.9 46.4 9.3 C 46.4 8.7 46.5 8.1 46.5 7.6 H 46.4 L 45.1 11.5 L 42.3 19.2 H 40.5 L 37.7 11.5 L 36.3 7.6 H 36.2 C 36.3 8.1 36.3 8.7 36.4 9.3 C 36.4 9.9 36.5 10.6 36.5 11.2 C 36.6 11.9 36.6 12.4 36.6 13 V 20.7 H 33.9 Z M 53.8 26 C 53.5 26 53.2 26 52.9 25.9 C 52.7 25.9 52.4 25.8 52.2 25.7 L 52.7 23.4 C 52.9 23.4 53 23.5 53.1 23.5 C 53.3 23.6 53.5 23.6 53.6 23.6 C 54.3 23.6 54.9 23.4 55.3 23 C 55.7 22.6 56 22 56.2 21.4 L 56.4 20.6 L 51.4 8 H 54.4 L 56.7 14.2 C 56.8 14.8 57 15.4 57.2 16 C 57.4 16.6 57.6 17.2 57.8 17.8 H 57.9 C 58 17.2 58.2 16.6 58.3 16 C 58.5 15.4 58.7 14.8 58.8 14.2 L 60.8 8 H 63.6 L 59 21.3 C 58.5 22.8 57.8 23.9 57.1 24.7 C 56.3 25.6 55.2 26 53.8 26 Z M 76.3 21.1 C 75.1 21.1 74 20.8 73 20.4 C 71.9 20 71 19.4 70.2 18.6 L 71.9 16.5 C 72.5 17.1 73.2 17.6 74 17.9 C 74.8 18.3 75.6 18.4 76.3 18.4 C 77.3 18.4 78.1 18.2 78.6 17.8 C 79.1 17.4 79.3 16.9 79.3 16.3 C 79.3 15.5 79.1 15 78.6 14.7 C 78.1 14.4 77.4 14.1 76.7 13.8 L 74.3 12.7 C 73.8 12.5 73.2 12.2 72.7 11.8 C 72.2 11.4 71.8 10.9 71.4 10.3 C 71.1 9.8 70.9 9 70.9 8.2 C 70.9 7.3 71.2 6.5 71.6 5.8 C 72.1 5.1 72.8 4.5 73.7 4.1 C 74.5 3.6 75.5 3.4 76.6 3.4 C 77.6 3.4 78.6 3.6 79.5 4 C 80.4 4.4 81.2 4.9 81.9 5.6 L 80.3 7.5 C 79.8 7.1 79.2 6.7 78.6 6.4 C 78 6.2 77.4 6.1 76.6 6.1 C 75.8 6.1 75.2 6.2 74.7 6.6 C 74.2 7 74 7.4 74 8.1 C 74 8.5 74.1 8.9 74.3 9.2 C 74.6 9.4 74.9 9.7 75.3 9.9 C 75.7 10.1 76.2 10.3 76.7 10.5 L 79 11.4 C 80 11.8 80.8 12.4 81.4 13.1 C 82.1 13.8 82.4 14.8 82.4 16 C 82.4 16.9 82.2 17.8 81.7 18.5 C 81.2 19.3 80.5 19.9 79.6 20.4 C 78.7 20.8 77.6 21.1 76.3 21.1 Z M 90.6 21.1 C 89.4 21.1 88.4 20.8 87.4 20.3 C 86.5 19.7 85.8 19 85.2 18 C 84.7 17 84.4 15.8 84.4 14.4 C 84.4 13 84.7 11.8 85.3 10.8 C 85.9 9.8 86.7 9 87.6 8.5 C 88.6 7.9 89.7 7.7 90.8 7.7 C 91.6 7.7 92.3 7.8 92.9 8.1 C 93.5 8.4 94.1 8.7 94.5 9.1 L 93.1 11.1 C 92.8 10.8 92.4 10.5 92.1 10.4 C 91.7 10.2 91.4 10.1 91 10.1 C 89.9 10.1 89.1 10.5 88.4 11.3 C 87.8 12.1 87.5 13.1 87.5 14.4 C 87.5 15.6 87.8 16.7 88.4 17.4 C 89 18.2 89.9 18.6 90.9 18.6 C 91.4 18.6 91.8 18.5 92.3 18.3 C 92.7 18.1 93.1 17.8 93.5 17.5 L 94.7 19.5 C 94.1 20 93.5 20.4 92.7 20.7 C 92 20.9 91.3 21.1 90.6 21.1 Z M 97.2 20.7 V 2.4 H 100.2 V 7.1 L 100.1 9.6 C 100.7 9.1 101.3 8.6 101.9 8.3 C 102.6 7.9 103.3 7.7 104.2 7.7 C 105.6 7.7 106.6 8.1 107.2 9 C 107.8 9.9 108.1 11.1 108.1 12.7 V 20.7 H 105.2 V 13.1 C 105.2 12.1 105 11.3 104.7 10.9 C 104.4 10.5 103.9 10.2 103.1 10.2 C 102.6 10.2 102.1 10.4 101.7 10.7 C 101.3 10.9 100.8 11.3 100.2 11.8 V 20.7 H 97.2 Z M 117.2 21.1 C 116 21.1 115 20.8 114 20.3 C 113.1 19.7 112.3 19 111.7 18 C 111.2 17 110.9 15.8 110.9 14.4 C 110.9 13 111.2 11.8 111.7 10.8 C 112.3 9.8 113.1 9 114 8.5 C 114.9 7.9 115.8 7.7 116.8 7.7 C 117.9 7.7 118.9 7.9 119.7 8.5 C 120.5 9 121.1 9.7 121.5 10.6 C 121.9 11.5 122.1 12.5 122.1 13.7 C 122.1 14.4 122 14.8 121.9 15.2 H 113.8 C 114 16.3 114.4 17.2 115 17.8 C 115.7 18.4 116.6 18.7 117.6 18.7 C 118.1 18.7 118.7 18.7 119.1 18.5 C 119.6 18.3 120.1 18.1 120.6 17.8 L 121.6 19.7 C 121 20.1 120.3 20.4 119.5 20.7 C 118.8 20.9 118 21.1 117.2 21.1 Z M 113.8 13.2 H 119.5 C 119.5 12.2 119.2 11.4 118.8 10.8 C 118.4 10.3 117.7 10 116.9 10 C 116.1 10 115.5 10.3 114.9 10.8 C 114.3 11.4 113.9 12.1 113.8 13.2 Z M 129.4 21.1 C 127.8 21.1 126.5 20.5 125.6 19.3 C 124.6 18.1 124.1 16.5 124.1 14.4 C 124.1 13 124.4 11.8 124.9 10.8 C 125.4 9.8 126.1 9 126.9 8.5 C 127.8 7.9 128.6 7.7 129.5 7.7 C 130.3 7.7 130.9 7.8 131.4 8.1 C 131.9 8.3 132.4 8.6 132.9 9.1 L 132.8 7 V 2.4 H 135.8 V 20.7 H 133.3 L 133.1 19.4 H 133 C 132.5 19.8 132 20.2 131.4 20.6 C 130.7 20.9 130.1 21.1 129.4 21.1 Z M 130.1 18.6 C 131.1 18.6 132 18.1 132.8 17.2 V 11.2 C 132.4 10.8 131.9 10.5 131.5 10.4 C 131.1 10.2 130.6 10.1 130.2 10.1 C 129.4 10.1 128.7 10.5 128.1 11.3 C 127.5 12 127.2 13 127.2 14.4 C 127.2 15.7 127.5 16.8 128 17.5 C 128.5 18.2 129.2 18.6 130.1 18.6 Z M 143.4 21.1 C 142 21.1 141 20.6 140.4 19.7 C 139.8 18.9 139.5 17.6 139.5 16 V 8 H 142.5 V 15.6 C 142.5 16.7 142.6 17.4 142.9 17.8 C 143.2 18.3 143.7 18.5 144.4 18.5 C 145 18.5 145.5 18.3 145.9 18.1 C 146.3 17.8 146.8 17.3 147.3 16.7 V 8 H 150.3 V 20.7 H 147.8 L 147.6 18.9 H 147.5 C 146.9 19.5 146.3 20.1 145.7 20.5 C 145 20.9 144.3 21.1 143.4 21.1 Z M 157 21.1 C 155.9 21.1 155.1 20.7 154.7 20.1 C 154.3 19.5 154 18.6 154 17.5 V 2.4 H 157 V 17.6 C 157 18 157.1 18.3 157.2 18.4 C 157.4 18.5 157.5 18.6 157.7 18.6 C 157.8 18.6 157.8 18.6 157.9 18.6 C 157.9 18.6 158 18.6 158.2 18.6 L 158.5 20.8 C 158.4 20.9 158.1 20.9 157.9 21 C 157.6 21 157.3 21.1 157 21.1 Z M 166.6 21.1 C 165.4 21.1 164.3 20.8 163.4 20.3 C 162.4 19.7 161.7 19 161.1 18 C 160.5 17 160.3 15.8 160.3 14.4 C 160.3 13 160.5 11.8 161.1 10.8 C 161.7 9.8 162.4 9 163.3 8.5 C 164.2 7.9 165.2 7.7 166.1 7.7 C 167.3 7.7 168.3 7.9 169.1 8.5 C 169.8 9 170.4 9.7 170.8 10.6 C 171.2 11.5 171.4 12.5 171.4 13.7 C 171.4 14.4 171.4 14.8 171.3 15.2 H 163.2 C 163.3 16.3 163.7 17.2 164.4 17.8 C 165.1 18.4 165.9 18.7 167 18.7 C 167.5 18.7 168 18.7 168.5 18.5 C 169 18.3 169.4 18.1 169.9 17.8 L 170.9 19.7 C 170.3 20.1 169.6 20.4 168.9 20.7 C 168.2 20.9 167.4 21.1 166.6 21.1 Z M 163.2 13.2 H 168.8 C 168.8 12.2 168.6 11.4 168.2 10.8 C 167.7 10.3 167.1 10 166.2 10 C 165.5 10 164.8 10.3 164.2 10.8 C 163.7 11.4 163.3 12.1 163.2 13.2 Z"
        fill="#212121" />
</svg>