<svg width="151" height="44" viewBox="0 0 151 44" fill="none" xmlns="http://www.w3.org/2000/svg">
    <rect y="0.5" width="151" height="43" rx="4" fill="url(#paint0_linear_33_150)"/>
    <path d="M15.62 28.5V16.692H17.42L19.688 22.992C19.832 23.4 19.97 23.814 20.102 24.234C20.246 24.642 20.39 25.05 20.534 25.458H20.606C20.75 25.05 20.882 24.642 21.002 24.234C21.134 23.814 21.272 23.4 21.416 22.992L23.648 16.692H25.466V28.5H24.062V22.002C24.062 21.474 24.086 20.892 24.134 20.256C24.182 19.608 24.224 19.026 24.26 18.51H24.188L23.252 21.192L21.02 27.312H20.03L17.798 21.192L16.862 18.51H16.79C16.826 19.026 16.862 19.608 16.898 20.256C16.946 20.892 16.97 21.474 16.97 22.002V28.5H15.62ZM28.6981 32.262C28.5061 32.262 28.3201 32.244 28.1401 32.208C27.9721 32.172 27.8161 32.13 27.6721 32.082L27.9601 30.912C28.0561 30.936 28.1641 30.96 28.2841 30.984C28.4041 31.02 28.5181 31.038 28.6261 31.038C29.1181 31.038 29.5261 30.858 29.8501 30.498C30.1741 30.15 30.4261 29.706 30.6061 29.166L30.8041 28.518L27.2941 19.752H28.8241L30.6061 24.594C30.7381 24.966 30.8761 25.368 31.0201 25.8C31.1761 26.232 31.3201 26.652 31.4521 27.06H31.5241C31.6561 26.664 31.7821 26.25 31.9021 25.818C32.0221 25.386 32.1421 24.978 32.2621 24.594L33.8281 19.752H35.2681L31.9741 29.22C31.7701 29.796 31.5241 30.312 31.2361 30.768C30.9601 31.224 30.6121 31.584 30.1921 31.848C29.7841 32.124 29.2861 32.262 28.6981 32.262ZM43.98 28.716C43.152 28.716 42.384 28.56 41.676 28.248C40.968 27.924 40.356 27.498 39.84 26.97L40.74 25.926C41.16 26.37 41.652 26.73 42.216 27.006C42.792 27.27 43.386 27.402 43.998 27.402C44.778 27.402 45.384 27.228 45.816 26.88C46.248 26.52 46.464 26.052 46.464 25.476C46.464 25.068 46.374 24.744 46.194 24.504C46.026 24.264 45.792 24.06 45.492 23.892C45.204 23.724 44.874 23.556 44.502 23.388L42.81 22.65C42.438 22.494 42.066 22.29 41.694 22.038C41.334 21.786 41.028 21.462 40.776 21.066C40.536 20.67 40.416 20.184 40.416 19.608C40.416 19.008 40.572 18.474 40.884 18.006C41.208 17.526 41.652 17.154 42.216 16.89C42.78 16.614 43.416 16.476 44.124 16.476C44.832 16.476 45.486 16.614 46.086 16.89C46.686 17.154 47.196 17.502 47.616 17.934L46.806 18.906C46.446 18.558 46.044 18.288 45.6 18.096C45.168 17.892 44.676 17.79 44.124 17.79C43.464 17.79 42.93 17.946 42.522 18.258C42.126 18.57 41.928 18.99 41.928 19.518C41.928 19.89 42.024 20.202 42.216 20.454C42.42 20.694 42.672 20.892 42.972 21.048C43.272 21.204 43.578 21.348 43.89 21.48L45.564 22.2C46.02 22.392 46.428 22.626 46.788 22.902C47.16 23.166 47.454 23.496 47.67 23.892C47.886 24.276 47.994 24.762 47.994 25.35C47.994 25.974 47.832 26.544 47.508 27.06C47.184 27.564 46.722 27.966 46.122 28.266C45.522 28.566 44.808 28.716 43.98 28.716ZM53.6312 28.716C52.8632 28.716 52.1672 28.536 51.5432 28.176C50.9192 27.816 50.4272 27.294 50.0672 26.61C49.7072 25.926 49.5272 25.104 49.5272 24.144C49.5272 23.16 49.7192 22.326 50.1032 21.642C50.4992 20.958 51.0152 20.436 51.6512 20.076C52.2992 19.716 52.9952 19.536 53.7392 19.536C54.3152 19.536 54.8072 19.638 55.2152 19.842C55.6352 20.046 55.9952 20.286 56.2952 20.562L55.5392 21.534C55.2872 21.306 55.0172 21.12 54.7292 20.976C54.4532 20.832 54.1412 20.76 53.7932 20.76C53.2652 20.76 52.7912 20.904 52.3712 21.192C51.9632 21.468 51.6392 21.864 51.3992 22.38C51.1712 22.884 51.0572 23.472 51.0572 24.144C51.0572 25.14 51.3032 25.95 51.7952 26.574C52.2992 27.186 52.9532 27.492 53.7572 27.492C54.1652 27.492 54.5432 27.408 54.8912 27.24C55.2392 27.06 55.5452 26.85 55.8092 26.61L56.4572 27.6C56.0612 27.948 55.6232 28.224 55.1432 28.428C54.6632 28.62 54.1592 28.716 53.6312 28.716ZM58.3842 28.5V15.684H59.8602V19.176L59.8062 20.976C60.2262 20.58 60.6642 20.244 61.1202 19.968C61.5882 19.68 62.1222 19.536 62.7222 19.536C63.6462 19.536 64.3182 19.83 64.7382 20.418C65.1702 20.994 65.3862 21.84 65.3862 22.956V28.5H63.9102V23.154C63.9102 22.338 63.7782 21.744 63.5142 21.372C63.2502 21 62.8302 20.814 62.2542 20.814C61.8102 20.814 61.4082 20.928 61.0482 21.156C60.7002 21.384 60.3042 21.72 59.8602 22.164V28.5H58.3842ZM71.7212 28.716C70.9412 28.716 70.2332 28.536 69.5972 28.176C68.9612 27.804 68.4572 27.276 68.0852 26.592C67.7132 25.908 67.5272 25.092 67.5272 24.144C67.5272 23.184 67.7132 22.362 68.0852 21.678C68.4692 20.994 68.9612 20.466 69.5612 20.094C70.1612 19.722 70.7912 19.536 71.4512 19.536C72.5672 19.536 73.4252 19.908 74.0252 20.652C74.6372 21.396 74.9432 22.392 74.9432 23.64C74.9432 23.796 74.9372 23.952 74.9252 24.108C74.9252 24.252 74.9132 24.378 74.8892 24.486H68.9852C69.0452 25.41 69.3332 26.148 69.8492 26.7C70.3772 27.252 71.0612 27.528 71.9012 27.528C72.3212 27.528 72.7052 27.468 73.0532 27.348C73.4132 27.216 73.7552 27.048 74.0792 26.844L74.6012 27.816C74.2292 28.056 73.8032 28.266 73.3232 28.446C72.8552 28.626 72.3212 28.716 71.7212 28.716ZM68.9672 23.424H73.6472C73.6472 22.536 73.4552 21.864 73.0712 21.408C72.6992 20.94 72.1712 20.706 71.4872 20.706C70.8752 20.706 70.3232 20.946 69.8312 21.426C69.3512 21.894 69.0632 22.56 68.9672 23.424ZM80.0929 28.716C79.0009 28.716 78.1249 28.32 77.4649 27.528C76.8049 26.724 76.4749 25.596 76.4749 24.144C76.4749 23.196 76.6489 22.38 76.9969 21.696C77.3569 21 77.8249 20.466 78.4009 20.094C78.9889 19.722 79.6129 19.536 80.2729 19.536C80.7769 19.536 81.2149 19.626 81.5869 19.806C81.9589 19.986 82.3369 20.232 82.7209 20.544L82.6489 19.05V15.684H84.1429V28.5H82.9189L82.7929 27.474H82.7389C82.4029 27.81 82.0069 28.104 81.5509 28.356C81.0949 28.596 80.6089 28.716 80.0929 28.716ZM80.4169 27.474C81.1849 27.474 81.9289 27.072 82.6489 26.268V21.696C82.2769 21.36 81.9169 21.126 81.5689 20.994C81.2329 20.85 80.8849 20.778 80.5249 20.778C80.0569 20.778 79.6309 20.922 79.2469 21.21C78.8749 21.486 78.5749 21.876 78.3469 22.38C78.1189 22.872 78.0049 23.454 78.0049 24.126C78.0049 25.17 78.2149 25.992 78.6349 26.592C79.0549 27.18 79.6489 27.474 80.4169 27.474ZM89.6453 28.716C88.7213 28.716 88.0433 28.428 87.6113 27.852C87.1793 27.264 86.9633 26.412 86.9633 25.296V19.752H88.4573V25.098C88.4573 25.914 88.5833 26.508 88.8353 26.88C89.0993 27.252 89.5193 27.438 90.0953 27.438C90.5513 27.438 90.9533 27.324 91.3013 27.096C91.6613 26.856 92.0453 26.478 92.4533 25.962V19.752H93.9293V28.5H92.7053L92.5793 27.132H92.5253C92.1173 27.612 91.6853 27.996 91.2293 28.284C90.7733 28.572 90.2453 28.716 89.6453 28.716ZM98.4463 28.716C97.8943 28.716 97.4923 28.548 97.2403 28.212C97.0003 27.864 96.8803 27.372 96.8803 26.736V15.684H98.3563V26.844C98.3563 27.072 98.3983 27.24 98.4823 27.348C98.5663 27.444 98.6623 27.492 98.7703 27.492C98.8183 27.492 98.8603 27.492 98.8963 27.492C98.9443 27.48 99.0103 27.468 99.0943 27.456L99.2923 28.572C99.1963 28.62 99.0823 28.656 98.9503 28.68C98.8183 28.704 98.6503 28.716 98.4463 28.716ZM105.014 28.716C104.234 28.716 103.526 28.536 102.89 28.176C102.254 27.804 101.75 27.276 101.378 26.592C101.006 25.908 100.82 25.092 100.82 24.144C100.82 23.184 101.006 22.362 101.378 21.678C101.762 20.994 102.254 20.466 102.854 20.094C103.454 19.722 104.084 19.536 104.744 19.536C105.86 19.536 106.718 19.908 107.318 20.652C107.93 21.396 108.236 22.392 108.236 23.64C108.236 23.796 108.23 23.952 108.218 24.108C108.218 24.252 108.206 24.378 108.182 24.486H102.278C102.338 25.41 102.626 26.148 103.142 26.7C103.67 27.252 104.354 27.528 105.194 27.528C105.614 27.528 105.998 27.468 106.346 27.348C106.706 27.216 107.048 27.048 107.372 26.844L107.894 27.816C107.522 28.056 107.096 28.266 106.616 28.446C106.148 28.626 105.614 28.716 105.014 28.716ZM102.26 23.424H106.94C106.94 22.536 106.748 21.864 106.364 21.408C105.992 20.94 105.464 20.706 104.78 20.706C104.168 20.706 103.616 20.946 103.124 21.426C102.644 21.894 102.356 22.56 102.26 23.424Z" fill="white"/>
    <path d="M129.5 26L122 18H137L129.5 26Z" fill="white"/>
    <defs>
        <linearGradient id="paint0_linear_33_150" x1="75.5" y1="0.5" x2="75.5" y2="43.5" gradientUnits="userSpaceOnUse">
            <stop stop-color="#F3AB82"/>
            <stop offset="0.520833" stop-color="#E78163"/>
            <stop offset="0.9999" stop-color="#D26B51"/>
            <stop offset="1" stop-color="#E0775A" stop-opacity="0"/>
            <stop offset="1" stop-color="#E1795C" stop-opacity="0.0416667"/>
        </linearGradient>
    </defs>
</svg>
