<svg width="97" height="33" viewBox="0 0 97 33" fill="none" xmlns="http://www.w3.org/2000/svg">
<path d="M19.6 18.4H27.5V24.9C27.5 26.1638 26.4639 27.2 25.2 27.2H2.8C1.53614 27.2 0.5 26.1638 0.5 24.9V18.4H7.22338L9.50448 22.949C9.81739 23.6075 10.489 24 11.2 24C11.911 24 12.5827 23.6075 12.8956 22.9488L16.8006 15.1512L17.9046 17.3491C18.2175 18.0076 18.8891 18.4 19.6 18.4Z" stroke="#51BBD5"/>
<path d="M11.1994 17.8487L10.0955 15.6508C9.78251 14.9923 9.11095 14.6 8.4 14.6H0.5V8.09999C0.5 6.83613 1.53614 5.79999 2.8 5.79999H25.2C26.4639 5.79999 27.5 6.83613 27.5 8.09999V14.6H20.7774L18.5075 10.0469L18.5072 10.0464C18.1652 9.36235 17.4564 9.05599 16.807 9.05599C16.1576 9.05599 15.4488 9.36235 15.1068 10.0464L11.1994 17.8487Z" stroke="#51BBD5"/>
<path d="M43.46 26L38 8.944H40.314L43.044 18.148C43.356 19.1533 43.6247 20.098 43.85 20.982C44.0927 21.8487 44.3787 22.7847 44.708 23.79H44.812C45.124 22.7847 45.4013 21.8487 45.644 20.982C45.8867 20.098 46.1553 19.1533 46.45 18.148L49.18 8.944H51.39L45.982 26H43.46ZM53.5129 26V13.364H55.6449V26H53.5129ZM54.6049 10.764C54.1889 10.764 53.8422 10.6427 53.5649 10.4C53.3049 10.14 53.1749 9.79333 53.1749 9.36C53.1749 8.944 53.3049 8.606 53.5649 8.346C53.8422 8.086 54.1889 7.956 54.6049 7.956C55.0209 7.956 55.3589 8.086 55.6189 8.346C55.8962 8.606 56.0349 8.944 56.0349 9.36C56.0349 9.79333 55.8962 10.14 55.6189 10.4C55.3589 10.6427 55.0209 10.764 54.6049 10.764ZM63.8893 26.312C62.5373 26.312 61.5926 25.922 61.0553 25.142C60.5353 24.362 60.2753 23.348 60.2753 22.1V15.106H58.4033V13.494L60.3793 13.364L60.6393 9.828H62.4333V13.364H65.8393V15.106H62.4333V22.126C62.4333 22.906 62.572 23.5127 62.8493 23.946C63.144 24.362 63.6553 24.57 64.3833 24.57C64.6086 24.57 64.8513 24.5353 65.1113 24.466C65.3713 24.3793 65.6053 24.3013 65.8133 24.232L66.2293 25.844C65.8826 25.9653 65.5013 26.0693 65.0853 26.156C64.6866 26.26 64.288 26.312 63.8893 26.312ZM71.0499 26.312C69.9925 26.312 69.1085 26 68.3979 25.376C67.7045 24.7347 67.3579 23.8507 67.3579 22.724C67.3579 21.3373 67.9732 20.28 69.2039 19.552C70.4519 18.8067 72.4192 18.2867 75.1059 17.992C75.1059 17.4547 75.0279 16.9433 74.8719 16.458C74.7332 15.9727 74.4732 15.5827 74.0919 15.288C73.7279 14.976 73.1992 14.82 72.5059 14.82C71.7779 14.82 71.0932 14.9587 70.4519 15.236C69.8105 15.5133 69.2385 15.8253 68.7359 16.172L67.9039 14.69C68.4932 14.3087 69.2125 13.9447 70.0619 13.598C70.9285 13.234 71.8645 13.052 72.8699 13.052C74.4125 13.052 75.5305 13.5287 76.2239 14.482C76.9172 15.418 77.2639 16.6747 77.2639 18.252V26H75.4959L75.3139 24.492H75.2359C74.6465 24.9773 73.9965 25.402 73.2859 25.766C72.5925 26.13 71.8472 26.312 71.0499 26.312ZM71.6739 24.596C72.2805 24.596 72.8525 24.4487 73.3899 24.154C73.9272 23.8593 74.4992 23.4433 75.1059 22.906V19.396C73.0085 19.656 71.5352 20.046 70.6859 20.566C69.8539 21.086 69.4379 21.7533 69.4379 22.568C69.4379 23.2787 69.6545 23.7987 70.0879 24.128C70.5212 24.44 71.0499 24.596 71.6739 24.596ZM83.5014 26.312C82.7041 26.312 82.1234 26.0693 81.7594 25.584C81.4128 25.0813 81.2394 24.3707 81.2394 23.452V7.488H83.3714V23.608C83.3714 23.9373 83.4321 24.18 83.5534 24.336C83.6748 24.4747 83.8134 24.544 83.9694 24.544C84.0388 24.544 84.0994 24.544 84.1514 24.544C84.2208 24.5267 84.3161 24.5093 84.4374 24.492L84.7234 26.104C84.5848 26.1733 84.4201 26.2253 84.2294 26.26C84.0388 26.2947 83.7961 26.312 83.5014 26.312ZM91.1684 26.312C90.267 26.312 89.409 26.1473 88.5944 25.818C87.7797 25.4713 87.069 25.0553 86.4624 24.57L87.5284 23.14C88.083 23.5733 88.655 23.9373 89.2444 24.232C89.8337 24.5093 90.501 24.648 91.2464 24.648C92.0784 24.648 92.7024 24.4573 93.1184 24.076C93.5344 23.6773 93.7424 23.2093 93.7424 22.672C93.7424 22.2387 93.595 21.8747 93.3004 21.58C93.023 21.2853 92.659 21.0427 92.2084 20.852C91.775 20.644 91.3244 20.4533 90.8564 20.28C90.267 20.0547 89.6864 19.8033 89.1144 19.526C88.5424 19.2313 88.0744 18.8587 87.7104 18.408C87.3464 17.94 87.1644 17.3507 87.1644 16.64C87.1644 15.6173 87.5457 14.768 88.3084 14.092C89.0884 13.3987 90.163 13.052 91.5324 13.052C92.3124 13.052 93.0404 13.1907 93.7164 13.468C94.3924 13.7453 94.973 14.0833 95.4584 14.482L94.4184 15.834C93.985 15.5047 93.5344 15.236 93.0664 15.028C92.5984 14.82 92.087 14.716 91.5324 14.716C90.735 14.716 90.1457 14.898 89.7644 15.262C89.4004 15.626 89.2184 16.0507 89.2184 16.536C89.2184 16.9347 89.3484 17.264 89.6084 17.524C89.8684 17.7667 90.2064 17.9833 90.6224 18.174C91.0384 18.3473 91.4804 18.5293 91.9484 18.72C92.555 18.9453 93.153 19.2053 93.7424 19.5C94.3317 19.7773 94.817 20.1587 95.1984 20.644C95.597 21.112 95.7964 21.7447 95.7964 22.542C95.7964 23.218 95.6144 23.842 95.2504 24.414C94.9037 24.986 94.3837 25.4453 93.6904 25.792C93.0144 26.1387 92.1737 26.312 91.1684 26.312Z" fill="#212121"/>
</svg>
